<svg xmlns="http://www.w3.org/2000/svg" viewBox="0 0 400 300" width="400" height="300" role="img" shape-rendering="geometricPrecision"><rect width="400" height="300" fill="#14224A"/><path d="M0 0 L220 0 L0 225 Z" fill="#F4EBDA" opacity="0.08"/><rect x="0" y="246" width="400" height="54" fill="#1B2C58"/><rect x="112" y="150" width="180" height="96" fill="#DCD3C0"/><path d="M112 150 L292 150 L292 176 L112 176 Z" fill="#F4EBDA"/><rect x="100" y="120" width="204" height="30" fill="#E1442A"/><rect x="168" y="66" width="68" height="54" fill="#0E1526"/><rect x="186" y="46" width="32" height="20" fill="#0E1526"/><path d="M130 246 L130 262" stroke="#F4EBDA" stroke-width="4" opacity="0.7"/><circle cx="130" cy="268" r="4" fill="#F4EBDA" opacity="0.7"/><path d="M152 246 L152 262" stroke="#F4EBDA" stroke-width="4" opacity="0.7"/><circle cx="152" cy="268" r="4" fill="#F4EBDA" opacity="0.7"/><path d="M268 246 L268 262" stroke="#F4EBDA" stroke-width="4" opacity="0.7"/><circle cx="268" cy="268" r="4" fill="#F4EBDA" opacity="0.7"/><path d="M60 246 L146 246 Q168 246 168 230 Q168 214 146 214 L60 214 Z" fill="#F2A118"/><path d="M340 246 L254 246 Q232 246 232 230 Q232 214 254 214 L340 214 Z" fill="#F2A118"/></svg>